<?xml version="1.0" encoding="iso-8859-1"?>
<!-- Generator: Adobe Illustrator 19.0.0, SVG Export Plug-In . SVG Version: 6.00 Build 0)  -->
<svg version="1.1" id="Capa_1" xmlns="http://www.w3.org/2000/svg" xmlns:xlink="http://www.w3.org/1999/xlink" x="0px" y="0px"
	 viewBox="0 0 512.121 512.121" style="enable-background:new 0 0 512.121 512.121;" xml:space="preserve">
<g transform="translate(-1 -1)">
	<g transform="translate(1 2)">
		<g>
			<circle style="fill:#E7EBF4;" cx="76.865" cy="485.413" r="17.067"/>
			<circle style="fill:#E7EBF4;" cx="435.265" cy="485.413" r="17.067"/>
			<circle style="fill:#E7EBF4;" cx="230.465" cy="485.413" r="17.067"/>
			<circle style="fill:#E7EBF4;" cx="298.732" cy="485.413" r="17.067"/>
			<circle style="fill:#E7EBF4;" cx="298.732" cy="417.146" r="17.067"/>
			<path style="fill:#E7EBF4;" d="M503.532,246.479c-0.017,47.121-38.212,85.317-85.333,85.333h-25.6
				c47.128,0,85.333-38.205,85.333-85.333s-38.205-85.333-85.333-85.333h-1.024l0.085-1.28c0.658-5.236,0.971-10.51,0.939-15.787
				c0.035-70.461-53.58-129.363-123.733-135.936c4.254-0.416,8.526-0.615,12.8-0.597c36.214-0.01,70.948,14.371,96.555,39.978
				c25.607,25.607,39.989,60.341,39.978,96.555c0.032,5.277-0.281,10.551-0.939,15.787l-0.085,1.28h1.024
				C465.319,161.163,503.514,199.358,503.532,246.479z"/>
		</g>
		<path style="fill:#F0F7FF;" d="M477.932,246.479c-0.017,47.121-38.212,85.317-85.333,85.333H93.932
			c-42.694,0.04-78.841-31.494-84.595-73.798s20.657-82.347,61.811-93.711c-4.453-12.254-3.597-25.809,2.363-37.405
			c5.96-11.596,16.483-20.182,29.039-23.694c4.129-1.209,8.412-1.813,12.715-1.792c3.594-0.011,7.177,0.419,10.667,1.28
			c8.425,1.937,16.14,6.194,22.272,12.288c12.695-58.07,61.482-101.267,120.661-106.837
			c70.153,6.573,123.768,65.475,123.733,135.936c0.032,5.277-0.281,10.551-0.939,15.787l-0.085,1.28h1.024
			C439.719,161.163,477.914,199.358,477.932,246.479z"/>
		<g>
			<rect x="196.332" y="152.613" style="fill:#E7EBF4;" width="119.467" height="119.467"/>
			<path style="fill:#E7EBF4;" d="M247.532,195.279h17.067c4.713,0,8.533,3.821,8.533,8.533v17.067c0,4.713-3.82,8.533-8.533,8.533
				h-17.067c-4.713,0-8.533-3.82-8.533-8.533v-17.067C238.998,199.1,242.819,195.279,247.532,195.279z"/>
		</g>
		<g>
			<path style="fill:#FFFFFF;" d="M173.804,114.981C186.48,57.009,235.132,13.851,294.202,8.179
				c-4.135-0.377-8.304-0.633-12.538-0.633c-4.274-0.018-8.546,0.181-12.8,0.597c-54.527,5.146-100.707,42.365-117.32,94.553
				C159.965,104.634,167.675,108.889,173.804,114.981z"/>
			<path style="fill:#FFFFFF;" d="M93.932,331.813h25.6c-42.694,0.04-78.841-31.494-84.595-73.798s20.657-82.347,61.811-93.711
				c-4.438-12.209-3.603-25.714,2.305-37.284c5.909-11.57,16.36-20.163,28.853-23.726c-0.667-0.184-1.296-0.447-1.975-0.602
				c-3.49-0.861-7.072-1.29-10.667-1.28c-4.303-0.021-8.585,0.583-12.715,1.792c-12.556,3.512-23.08,12.098-29.039,23.694
				c-5.96,11.596-6.816,25.151-2.363,37.405c-41.135,11.382-67.526,51.415-61.774,93.706S51.251,331.831,93.932,331.813z"/>
		</g>
	</g>
	<g>
		<path style="fill:#FFFFFF;" d="M94.932,342.346C47.975,342.364,8.235,307.67,1.916,261.14s22.73-90.566,67.991-103.071
			l4.482,16.468c-36.967,10.298-60.655,46.307-55.473,84.331s37.641,66.382,76.016,66.412V342.346z"/>
		<g>
			<path style="fill:#51A1FF;" d="M419.198,342.346c50.227,0.015,91.56-39.522,93.775-89.7
				c2.215-50.178-35.473-93.203-85.506-97.614c0.174-2.846,0.265-5.812,0.265-8.952C427.711,74.475,375.463,13.59,304.691,2.701
				S165.785,34.173,144.24,102.458c-18.747-11.12-42.279-10.181-60.079,2.4c-17.8,12.58-26.541,34.449-22.316,55.833
				c-45.457,17.078-70.33,66.058-57.3,112.836c0.796,3.028,1.782,6.003,2.951,8.908c0.775,2.233,2.472,4.026,4.659,4.923
				c2.187,0.897,4.654,0.812,6.774-0.234c3.983-2.014,5.886-6.643,4.473-10.876c-0.962-2.37-1.767-4.8-2.409-7.276
				c-5.468-19.604-2.911-40.579,7.106-58.296s26.672-30.72,46.289-36.141l-0.028-0.105c0.231-0.062,0.465-0.02,0.696-0.102
				c4.428-1.609,6.717-6.498,5.117-10.929c-6.129-16.865,0.255-35.726,15.368-45.402s34.914-7.578,47.666,5.048
				c2.215,2.188,5.445,2.997,8.43,2.111c2.985-0.886,5.25-3.327,5.912-6.369c13.955-63.879,73.8-106.98,138.809-99.97
				s114.291,61.876,114.308,127.262c0.024,5.093-0.285,10.181-0.925,15.233l-0.033,0.779c-2.541,20.073-9.804,39.259-21.192,55.983
				c-1.716,2.519-1.959,5.762-0.636,8.508s4.01,4.577,7.05,4.804s5.969-1.185,7.686-3.703c11.399-16.77,19.163-35.74,22.794-55.69
				c41.053,3.334,72.159,38.47,70.492,79.624c-1.667,41.154-35.514,73.659-76.702,73.661H94.932
				c-10.275-0.001-20.447-2.059-29.915-6.052c-4.183-1.626-8.92,0.151-11.003,4.127c-1.077,2.096-1.22,4.549-0.393,6.755
				c0.827,2.206,2.547,3.961,4.736,4.832c11.575,4.885,24.011,7.403,36.574,7.405h8.533v47.667l-31.633,31.634
				c-1.6,1.6-2.5,3.77-2.5,6.033v35.706c-11.755,4.156-18.806,16.176-16.698,28.465s12.763,21.271,25.231,21.271
				s23.123-8.982,25.231-21.271s-4.943-24.309-16.698-28.465v-32.172l31.633-31.633c1.6-1.6,2.5-3.77,2.5-6.034v-51.2h25.6v51.2
				c0,4.713,3.82,8.533,8.533,8.533s8.533-3.82,8.533-8.533v-51.2h25.6v34.133c0.001,2.263,0.9,4.433,2.5,6.033l31.633,31.634
				v49.239c-11.755,4.156-18.806,16.176-16.698,28.465c2.108,12.289,12.763,21.271,25.231,21.271
				c12.468,0,23.123-8.982,25.231-21.271c2.108-12.289-4.943-24.309-16.698-28.465v-52.772c-0.001-2.263-0.9-4.433-2.5-6.033
				l-31.633-31.634v-30.6h56.2l29.133,29.133v23.639c-10.22,3.564-17.067,13.203-17.067,24.027c0,10.824,6.847,20.463,17.067,24.027
				v20.212c-11.755,4.156-18.806,16.176-16.698,28.465c2.108,12.289,12.763,21.271,25.231,21.271s23.123-8.982,25.231-21.271
				c2.108-12.289-4.943-24.309-16.698-28.465v-20.212c10.22-3.565,17.067-13.204,17.067-24.028s-6.847-20.463-17.067-24.028v-27.172
				c-0.001-2.263-0.9-4.433-2.5-6.033l-19.566-19.567h64.733v76.8c0,4.713,3.82,8.533,8.533,8.533s8.533-3.82,8.533-8.533v-76.8
				h25.6v42.667c0.001,2.263,0.9,4.433,2.5,6.033l31.633,31.634v40.706c-11.755,4.156-18.806,16.176-16.698,28.465
				c2.108,12.289,12.763,21.271,25.231,21.271c12.468,0,23.123-8.982,25.231-21.271c2.108-12.289-4.943-24.309-16.698-28.465
				v-44.239c-0.001-2.263-0.9-4.433-2.5-6.033l-31.633-31.634v-39.133H419.198z M77.865,495.946c-4.713,0-8.533-3.82-8.533-8.533
				s3.821-8.533,8.533-8.533s8.533,3.82,8.533,8.533C86.393,492.123,82.576,495.941,77.865,495.946z M231.465,495.946
				c-4.713,0-8.533-3.82-8.533-8.533s3.82-8.533,8.533-8.533s8.533,3.82,8.533,8.533
				C239.993,492.123,236.176,495.941,231.465,495.946z M299.732,495.946c-4.713,0-8.533-3.82-8.533-8.533s3.82-8.533,8.533-8.533
				s8.533,3.82,8.533,8.533C308.26,492.123,304.442,495.941,299.732,495.946z M299.732,427.679c-4.713,0-8.533-3.82-8.533-8.533
				s3.82-8.533,8.533-8.533s8.533,3.82,8.533,8.533C308.26,423.857,304.442,427.675,299.732,427.679z M436.265,495.946
				c-4.713,0-8.533-3.82-8.533-8.533s3.82-8.533,8.533-8.533s8.533,3.82,8.533,8.533
				C444.794,492.123,440.976,495.941,436.265,495.946z"/>
			<path style="fill:#51A1FF;" d="M35.761,316.321c0.562-0.127,1.102-0.336,1.603-0.621c0.503-0.196,0.97-0.473,1.384-0.819
				c0.437-0.365,0.848-0.761,1.228-1.185c1.41-1.753,2.188-3.931,2.207-6.181c-0.036-1.053-0.272-2.09-0.695-3.056
				c-1.205-2.929-4.018-4.876-7.183-4.975c-1.099-0.003-2.193,0.159-3.244,0.482c-1.063,0.31-2.059,0.816-2.935,1.492
				c-1.792,1.433-2.909,3.545-3.087,5.832c0.035,2.418,0.955,4.739,2.586,6.525c1.709,1.739,4.043,2.723,6.481,2.732L35.761,316.321
				z"/>
			<path style="fill:#51A1FF;" d="M248.532,188.746c-9.421,0.011-17.056,7.645-17.067,17.067v17.067
				c0.011,9.421,7.645,17.056,17.067,17.067h17.067c9.421-0.011,17.056-7.645,17.067-17.067v-17.067
				c-0.011-9.421-7.645-17.056-17.067-17.067H248.532z M248.532,222.879v-17.067h17.067l0.009,17.067H248.532z"/>
			<path style="fill:#51A1FF;" d="M180.265,257.013c-4.713,0-8.533,3.82-8.533,8.533s3.821,8.533,8.533,8.533h17.067v17.067
				c0,4.713,3.821,8.533,8.533,8.533c4.713,0,8.533-3.82,8.533-8.533v-17.067h17.067v17.067c0,4.713,3.821,8.533,8.533,8.533
				s8.533-3.82,8.533-8.533v-17.067h17.067v17.067c0,4.713,3.82,8.533,8.533,8.533s8.533-3.82,8.533-8.533v-17.067h17.067v17.067
				c0,4.713,3.82,8.533,8.533,8.533s8.533-3.82,8.533-8.533v-17.067h17.067c4.713,0,8.533-3.82,8.533-8.533s-3.82-8.533-8.533-8.533
				h-17.067v-17.067h17.067c4.713,0,8.533-3.821,8.533-8.533c0-4.713-3.82-8.533-8.533-8.533h-17.067v-17.067h17.067
				c4.713,0,8.533-3.821,8.533-8.533s-3.82-8.533-8.533-8.533h-17.067v-17.067h17.067c4.713,0,8.533-3.821,8.533-8.533
				s-3.82-8.533-8.533-8.533h-17.067v-17.067c0-4.713-3.82-8.533-8.533-8.533s-8.533,3.821-8.533,8.533v17.067h-17.067v-17.067
				c0-4.713-3.82-8.533-8.533-8.533s-8.533,3.821-8.533,8.533v17.067h-17.067v-17.067c0-4.713-3.82-8.533-8.533-8.533
				s-8.533,3.821-8.533,8.533v17.067h-17.067v-17.067c0-4.713-3.821-8.533-8.533-8.533c-4.713,0-8.533,3.821-8.533,8.533v17.067
				h-17.067c-4.713,0-8.533,3.821-8.533,8.533s3.821,8.533,8.533,8.533h17.067v17.067h-17.067c-4.713,0-8.533,3.82-8.533,8.533
				s3.821,8.533,8.533,8.533h17.067v17.067h-17.067c-4.713,0-8.533,3.821-8.533,8.533c0,4.713,3.821,8.533,8.533,8.533h17.067
				v17.067H180.265z M299.732,257.013h-85.333v-85.333h85.333V257.013z"/>
			<path style="fill:#51A1FF;" d="M163.198,461.813v-34.133c0-4.713-3.821-8.533-8.533-8.533s-8.533,3.82-8.533,8.533v34.133
				c0,4.713,3.82,8.533,8.533,8.533S163.198,466.525,163.198,461.813z"/>
			<path style="fill:#51A1FF;" d="M367.998,461.813v-8.533c0-4.713-3.82-8.533-8.533-8.533s-8.533,3.82-8.533,8.533v8.533
				c0,4.713,3.82,8.533,8.533,8.533S367.998,466.525,367.998,461.813z"/>
		</g>
	</g>
</g>
<g>
</g>
<g>
</g>
<g>
</g>
<g>
</g>
<g>
</g>
<g>
</g>
<g>
</g>
<g>
</g>
<g>
</g>
<g>
</g>
<g>
</g>
<g>
</g>
<g>
</g>
<g>
</g>
<g>
</g>
</svg>
