<svg height="512pt" viewBox="0 -32 512 512" width="512pt" xmlns="http://www.w3.org/2000/svg"><path d="m272.066406 447.738281c-10.945312 0-17.472656-10.84375-14.097656-20.128906l64.265625-176.734375c2.832031-7.785156 11.441406-11.800781 19.226563-8.972656 7.785156 2.832031 11.800781 11.441406 8.96875 19.226562l-64.265626 176.730469c-2.21875 6.09375-7.96875 9.878906-14.097656 9.878906zm0 0" fill="#3ab4fb"/><path d="m432.734375 447.738281c-6.109375 0-11.851563-3.761719-14.082031-9.832031l-64.910156-176.734375c-2.855469-7.777344 1.136718-16.394531 8.910156-19.25 7.773437-2.859375 16.394531 1.132813 19.25 8.90625l64.910156 176.734375c3.65625 9.953125-3.84375 20.175781-14.078125 20.175781zm0 0" fill="#1d9cfd"/><path d="m464.871094 0h-224.941406c-26.027344 0-47.128907 21.101562-47.128907 47.128906v176.742188c0 26.027344 21.101563 47.128906 47.128907 47.128906h224.941406c26.027344 0 47.128906-21.101562 47.128906-47.128906v-176.742188c0-26.027344-21.101562-47.128906-47.128906-47.128906zm0 0" fill="#eff6fe"/><path d="m464.871094 0h-114.441406v271h114.441406c26.027344 0 47.128906-21.101562 47.128906-47.128906v-176.742188c0-26.027344-21.101562-47.128906-47.128906-47.128906zm0 0" fill="#d9e4ef"/><path d="m160.664062 95.335938c0 36.082031-29.25 65.332031-65.332031 65.332031s-65.332031-29.25-65.332031-65.332031c0-36.085938 29.25-65.335938 65.332031-65.335938s65.332031 29.25 65.332031 65.335938zm0 0" fill="#ffcfbe"/><path d="m241.257812 253.351562c-7.410156-3.707031-10.410156-12.714843-6.707031-20.125l40.167969-80.335937c3.707031-7.410156 12.71875-10.410156 20.125-6.707031 7.410156 3.707031 10.410156 12.714844 6.707031 20.125l-40.167969 80.332031c-3.710937 7.421875-12.726562 10.410156-20.125 6.710937zm0 0" fill="#ffb826"/><path d="m160.671875 95.335938c0 36.082031-29.25 65.332031-65.34375 65.332031v-130.671875c36.09375 0 65.34375 29.25 65.34375 65.339844zm0 0" fill="#f9bcaa"/><path d="m432.734375 86.238281h-160.667969c-8.285156 0-15-6.71875-15-15 0-8.285156 6.714844-15 15-15h160.667969c8.28125 0 15 6.714844 15 15 0 8.28125-6.714844 15-15 15zm0 0" fill="#3ab4fb"/><g fill="#1d9cfd"><path d="m432.734375 150.5h-67.304687c-8.285157 0-15-6.714844-15-15s6.714843-15 15-15h67.304687c8.285156 0 15 6.714844 15 15s-6.714844 15-15 15zm0 0"/><path d="m432.734375 214.765625h-67.304687c-8.285157 0-15-6.71875-15-15 0-8.285156 6.714843-15 15-15h67.304687c8.285156 0 15 6.714844 15 15 0 8.28125-6.714844 15-15 15zm0 0"/><path d="m432.734375 56.238281h-82.304687v30h82.304687c8.285156 0 15-6.71875 15-15 0-8.285156-6.714844-15-15-15zm0 0"/></g><path d="m143.53125 447.734375h-96.398438c-8.285156 0-15-6.714844-15-15v-83.847656c-18.660156-6.277344-32.132812-23.9375-32.132812-44.6875v-48.199219c0-25.503906 9.925781-49.449219 27.945312-67.421875 17.679688-17.726563 42.25-27.910156 67.390626-27.910156h13.253906c26.3125 0 41.734375 9.636719 63.347656 20.382812 23.800781 11.835938 53.496094 26.601563 72.433594 36.035157 17.472656 8.683593 25.839844 29.046874 19.550781 47.480468-.019531.058594-.039063.117188-.058594.175782-3.785156 11.195312-12.269531 20.214843-23.28125 24.746093-11.046875 4.496094-23.425781 4.019531-34.027343-1.28125-15.117188-7.5625-33.800782-16.902343-48.019532-24.007812v168.535156c-.003906 8.285156-6.71875 15-15.003906 15zm0 0" fill="#ff7579"/><path d="m244.371094 217.085938c-18.9375-9.433594-48.632813-24.199219-72.4375-36.035157-21.609375-10.746093-37.03125-20.382812-63.34375-20.382812h-13.257813s0 0-.003906 0v287.066406h48.203125c8.285156 0 15-6.714844 15-15v-168.535156c14.222656 7.105469 32.90625 16.445312 48.023438 24.007812 10.597656 5.300781 22.980468 5.773438 34.023437 1.28125 11.011719-4.53125 19.5-13.550781 23.285156-24.75.019531-.058593.039063-.117187.058594-.175781 6.289063-18.429688-2.078125-38.792969-19.550781-47.476562zm0 0" fill="#fe4a60"/></svg>