<svg id="Layer_1" enable-background="new 0 0 512.002 512.002" height="512" viewBox="0 0 512.002 512.002" width="512" xmlns="http://www.w3.org/2000/svg"><g><g><g><g><path d="m411.71 143.501v154.56c0 3.46-.33 6.84-.96 10.12-8.72 1.64-16.67 5.44-23.29 10.82-6.67 5.42-11.99 12.44-15.36 20.48-1.47 3.5-2.57 7.2-3.25 11.04-3.39.68-6.89 1.04-10.48 1.04h-189.98l-45.97 54.1c-1.42 1.68-3.5 2.65-5.7 2.65s-4.29-.97-5.72-2.65l-45.97-54.1h-11.68c-29.42 0-53.35-24-53.35-53.5v-154.56c0-29.5 23.93-53.5 53.35-53.5h305.02c29.41 0 53.34 24 53.34 53.5z" fill="#9090fb"/><g fill="#6c5fea"><path d="m338.38 351.561c12.78 0 24.52-4.53 33.72-12.08-1.47 3.5-2.57 7.2-3.25 11.04-3.39.68-6.89 1.04-10.48 1.04z"/><path d="m411.71 143.501v154.56c0 3.46-.33 6.84-.96 10.12-8.72 1.64-16.67 5.44-23.29 10.82 2.74-6.43 4.26-13.51 4.26-20.94v-154.56c0-29.5-23.93-53.5-53.34-53.5h19.99c29.41 0 53.34 24 53.34 53.5z"/></g></g><path d="m253.612 479.661c0 17.83-14.48 32.34-32.277 32.34h-189.058c-17.797 0-32.277-14.51-32.277-32.34s14.48-32.33 32.277-32.33h2.808l16.868-23.3c1.409-1.95 3.667-3.11 6.066-3.11 2.408 0 4.667 1.16 6.076 3.11l16.868 23.3h140.371c17.798 0 32.278 14.5 32.278 32.33z" fill="#ff6b81"/><path d="m512 32.341c0 17.83-14.48 32.33-32.277 32.33h-19.986l-16.868 23.3c-1.409 1.95-3.667 3.11-6.066 3.11-2.408 0-4.667-1.16-6.076-3.11l-16.858-23.3h-123.203c-17.797 0-32.277-14.5-32.277-32.33s14.48-32.34 32.277-32.34h189.057c17.797 0 32.277 14.51 32.277 32.34z" fill="#fbdf63"/><path d="m512 32.341c0 17.83-14.48 32.33-32.277 32.33h-19.986c17.797 0 32.277-14.5 32.277-32.33s-14.48-32.34-32.277-32.34h19.986c17.797 0 32.277 14.51 32.277 32.34z" fill="#ffa402"/><path d="m253.612 479.661c0 17.83-14.48 32.34-32.277 32.34h-19.986c17.797 0 32.277-14.51 32.277-32.34s-14.48-32.33-32.277-32.33h19.986c17.797 0 32.277 14.5 32.277 32.33z" fill="#ed2061"/></g></g><g fill="#fff"><path d="m149.854 188.446c4.142 0 7.5-3.357 7.5-7.5s-3.358-7.5-7.5-7.5h-39.999c-4.142 0-7.5 3.357-7.5 7.5v40c0 4.143 3.358 7.5 7.5 7.5h32.499v25h-32.499c-4.142 0-7.5 3.357-7.5 7.5s3.358 7.5 7.5 7.5h39.999c4.142 0 7.5-3.357 7.5-7.5v-40c0-4.143-3.358-7.5-7.5-7.5h-32.499v-25z"/><path d="m224.853 188.446c4.142 0 7.5-3.357 7.5-7.5s-3.358-7.5-7.5-7.5h-39.999c-4.142 0-7.5 3.357-7.5 7.5v80c0 4.143 3.358 7.5 7.5 7.5h39.999c4.142 0 7.5-3.357 7.5-7.5s-3.358-7.5-7.5-7.5h-32.499v-25h32.499c4.142 0 7.5-3.357 7.5-7.5s-3.358-7.5-7.5-7.5h-32.499v-25z"/><path d="m299.851 173.446h-39.999c-4.142 0-7.5 3.357-7.5 7.5v80c0 4.143 3.358 7.5 7.5 7.5h39.999c4.142 0 7.5-3.357 7.5-7.5v-80c0-4.143-3.358-7.5-7.5-7.5zm-7.5 80h-24.999v-65h24.999z"/></g><g><path d="m511.992 344.749c0-3.68-2.69-6.82-6.33-7.4l-10.35-1.64-4.93-11.919 6.15-8.49c2.16-2.99 1.84-7.1-.77-9.709l-21.18-21.179c-2.61-2.61-6.73-2.93-9.72-.76l-8.47 6.16-11.91-4.93-1.65-10.359c-.58-3.64-3.72-6.32-7.4-6.32h-12.73l-17.22.01c-3.69.01-6.83 2.69-7.41 6.33l-1.64 10.359-11.9 4.94-8.48-6.16c-2.99-2.16-7.1-1.84-9.71.77l-21.17 21.199c-2.61 2.61-2.93 6.72-.76 9.709l6.15 8.48-4.93 11.929-10.34 1.64c-3.64.58-6.32 3.72-6.32 7.41l.01 29.968c0 3.68 2.69 6.82 6.33 7.4l10.35 1.64 4.93 11.919-6.15 8.489c-2.16 2.99-1.84 7.1.77 9.709l21.18 21.179c2.61 2.61 6.73 2.93 9.71.76l8.47-6.16 11.92 4.94 1.65 10.349c.58 3.64 3.72 6.32 7.4 6.32h.01l14.99-.01h14.95c3.69-.01 6.83-2.69 7.41-6.33l1.64-10.359 11.9-4.94 8.48 6.16c2.99 2.16 7.11 1.84 9.71-.77l21.17-21.199c2.61-2.61 2.93-6.72.76-9.709l-6.15-8.479 4.93-11.919 10.34-1.65c3.64-.58 6.32-3.72 6.32-7.41zm-91.51 55.017c-22.09 0-40-17.909-40-39.998s17.91-39.998 40-39.998c22.1 0 40 17.909 40 39.998s-17.9 39.998-40 39.998z" fill="#56788b"/><path d="m512.002 374.717c0 3.69-2.68 6.83-6.32 7.41l-10.34 1.65-4.93 11.919 6.15 8.48c2.17 2.99 1.85 7.1-.76 9.709l-21.17 21.199c-2.6 2.61-6.72 2.93-9.71.77l-8.48-6.16-11.9 4.94-1.64 10.359c-.58 3.64-3.72 6.32-7.41 6.33h-14.95l6.62-31.128 31.96-13.269 8.91 6.47 6.08-6.1-6.46-8.9 13.48-32.608 10.87-1.73-.01-8.629-10.87-1.72-13.5-32.598 6.46-8.91-6.09-6.09-8.9 6.46-33.31-13.789-3.08-30.578h12.73c3.68 0 6.82 2.68 7.4 6.32l1.65 10.359 11.91 4.93 8.47-6.16c2.99-2.17 7.11-1.85 9.72.76l21.18 21.179c2.61 2.61 2.93 6.72.77 9.709l-6.15 8.49 4.93 11.919 10.35 1.64c3.64.58 6.33 3.72 6.33 7.4z" fill="#415e6f"/></g></g></svg>